<svg width="24" height="24" viewBox="0 0 24 24" fill="none" xmlns="http://www.w3.org/2000/svg">
<path d="M8 11.5C7.72386 11.5 7.5 11.7239 7.5 12C7.5 12.2761 7.72386 12.5 8 12.5H8.01C8.28614 12.5 8.51 12.2761 8.51 12C8.51 11.7239 8.28614 11.5 8.01 11.5H8ZM12 11.5C11.7239 11.5 11.5 11.7239 11.5 12C11.5 12.2761 11.7239 12.5 12 12.5H12.01C12.2861 12.5 12.51 12.2761 12.51 12C12.51 11.7239 12.2861 11.5 12.01 11.5H12ZM16 11.5C15.7239 11.5 15.5 11.7239 15.5 12C15.5 12.2761 15.7239 12.5 16 12.5H16.01C16.2861 12.5 16.51 12.2761 16.51 12C16.51 11.7239 16.2861 11.5 16.01 11.5H16ZM12 19.5L11.9983 19.5C10.6015 19.5048 9.22138 19.1969 7.959 18.5991C7.86182 18.5531 7.75239 18.5396 7.64694 18.5607L3.78401 19.3333L4.86316 16.4556C4.92159 16.2998 4.89868 16.1251 4.80207 15.9897C3.97515 14.8303 3.5 13.4626 3.5 12C3.5 7.91189 7.24914 4.5 12 4.5C16.7509 4.5 20.5 7.91189 20.5 12C20.5 16.0881 16.7509 19.5 12 19.5Z" fill="#FFA82F" stroke="white" stroke-linecap="round" stroke-linejoin="round"/>
</svg>
